<?xml version="1.0" standalone="no"?>
<!DOCTYPE svg PUBLIC "-//W3C//DTD SVG 20010904//EN"
 "http://www.w3.org/TR/2001/REC-SVG-20010904/DTD/svg10.dtd">
<svg version="1.0" xmlns="http://www.w3.org/2000/svg"
 width="700.000000pt" height="700.000000pt" viewBox="0 0 700.000000 700.000000"
 preserveAspectRatio="xMidYMid meet">
<metadata>
Created by potrace 1.11, written by Peter Selinger 2001-2013
</metadata>
<g transform="translate(0.000000,700.000000) scale(0.100000,-0.100000)"
fill="#000000" stroke="none">
<path d="M3269 5767 c-52 -20 -105 -54 -132 -86 -21 -26 -29 -28 -78 -27 -90
4 -169 -21 -236 -74 -29 -22 -42 -25 -115 -25 -67 0 -92 -5 -128 -24 -70 -36
-105 -66 -143 -124 -28 -42 -44 -56 -76 -65 -60 -19 -155 -95 -200 -162 -60
-91 -76 -147 -76 -270 0 -95 3 -111 29 -170 l30 -65 2 -1313 c1 -722 5 -1341
8 -1375 22 -217 91 -436 185 -592 213 -351 558 -495 894 -373 32 11 60 25 63
29 3 5 18 2 35 -6 67 -35 219 -70 304 -69 48 0 150 20 203 39 57 21 69 22 91
11 90 -46 277 -61 392 -31 196 51 380 206 510 430 86 147 165 390 185 565 4
36 8 643 9 1350 2 1174 4 1289 19 1330 67 178 -5 421 -159 539 -20 15 -35 41
-48 84 -23 76 -66 139 -120 178 -45 33 -122 59 -161 55 -20 -3 -31 4 -46 29
-26 41 -98 108 -141 131 -77 39 -194 51 -261 25 -21 -8 -32 -6 -52 10 -78 62
-200 75 -285 31 l-43 -23 -54 27 c-49 24 -62 26 -122 20 -80 -8 -87 -8 -177
-1 -47 4 -82 1 -106 -8z m169 -117 l34 -21 32 21 c19 11 48 20 66 20 40 0 95
-33 105 -63 5 -12 11 -31 14 -41 7 -20 51 -34 51 -16 0 25 49 82 86 100 48 24
85 25 123 5 33 -17 77 -65 86 -96 7 -21 7 -21 28 -1 40 36 90 55 147 55 100 1
178 -60 222 -175 22 -57 23 -57 46 -42 32 21 101 24 136 7 67 -34 107 -105
108 -194 0 -35 4 -40 44 -59 55 -27 109 -88 142 -159 l26 -56 -2 -500 c-1
-275 -2 -925 -2 -1445 -1 -900 -2 -950 -21 -1055 -73 -404 -291 -719 -567
-819 -45 -16 -80 -20 -172 -20 -105 0 -122 3 -192 31 l-78 31 -69 -28 c-157
-64 -330 -55 -481 24 l-45 24 -55 -28 c-238 -120 -519 -55 -716 164 -135 149
-231 360 -273 597 -18 98 -19 187 -20 1491 -1 1170 -3 1393 -15 1426 -24 66
-16 186 15 252 49 102 150 176 246 179 17 1 25 10 32 39 22 82 106 152 182
152 19 0 57 -11 82 -24 44 -22 47 -22 52 -5 9 27 70 84 112 104 54 26 139 24
192 -3 39 -20 42 -21 47 -5 3 10 15 37 26 61 41 83 151 118 226 72z"/>
<path d="M3308 5255 c-2 -2 -34 -6 -73 -9 -84 -8 -157 -15 -210 -21 -67 -8
-139 -16 -165 -19 -50 -5 -51 -8 -35 -106 2 -14 4 -42 4 -62 1 -45 30 -68 55
-43 10 11 13 29 10 67 -3 29 -7 59 -9 65 -5 15 14 20 105 28 36 4 78 8 93 10
15 2 60 6 100 10 40 3 79 8 89 11 22 6 29 -7 34 -64 9 -98 22 -119 57 -101 16
9 18 18 12 77 -9 82 -11 111 -13 138 -2 16 -9 22 -27 22 -13 0 -25 -2 -27 -3z"/>
<path d="M3741 5214 c-9 -141 -6 -178 13 -182 33 -7 43 16 47 104 l3 45 75 -5
c192 -14 227 -17 246 -21 11 -2 37 -4 58 -4 l37 -1 -2 -81 c-3 -68 0 -83 14
-93 34 -21 43 1 54 143 l6 91 -28 1 c-16 1 -38 3 -49 4 -25 3 -185 16 -240 20
-22 2 -83 6 -136 10 l-96 7 -2 -38z"/>
<path d="M3343 4852 l-43 -3 0 -98 c0 -109 10 -132 49 -111 16 8 21 20 20 48
-1 20 -1 51 0 68 l1 32 205 -1 c113 0 206 -3 206 -6 1 -3 2 -39 3 -79 2 -79
15 -104 44 -86 14 9 17 30 20 123 3 110 2 111 -20 112 -97 2 -451 3 -485 1z"/>
<path d="M2315 3343 c1 -736 5 -1354 9 -1373 39 -201 57 -261 113 -380 94
-197 233 -337 398 -400 48 -18 80 -23 160 -23 87 0 109 3 172 28 l72 29 -54
50 c-108 102 -240 314 -233 374 3 28 41 54 65 45 8 -3 32 -42 55 -87 58 -116
90 -161 178 -248 119 -118 247 -173 387 -167 125 6 238 58 345 161 66 64 147
177 182 256 12 27 28 45 42 48 32 8 64 -12 64 -42 0 -58 -115 -236 -215 -333
-42 -41 -73 -76 -71 -79 3 -2 33 -12 68 -22 167 -46 336 6 484 150 89 86 149
182 235 375 12 28 45 140 58 200 6 28 14 64 17 80 4 17 9 612 11 1324 l4 1294
-36 -32 c-40 -35 -72 -50 -123 -60 -30 -5 -35 -12 -51 -59 -20 -58 -50 -96
-95 -119 -38 -20 -119 -13 -147 13 -21 19 -22 19 -37 -6 -33 -51 -101 -109
-137 -116 -51 -9 -114 1 -145 25 l-28 20 -12 -45 c-17 -61 -76 -120 -129 -129
-32 -5 -51 -2 -86 15 -42 20 -48 21 -63 7 -71 -64 -170 -1 -181 116 -1 4 -11
7 -24 7 -16 0 -33 -14 -54 -44 -35 -50 -73 -73 -129 -80 -63 -8 -138 34 -170
96 l-14 27 -50 -31 c-28 -17 -68 -33 -94 -35 l-46 -6 0 -310 0 -310 -26 -34
c-29 -39 -68 -44 -105 -14 l-24 19 -2 354 -2 354 -35 38 c-19 22 -43 60 -52
87 -17 47 -18 48 -45 34 -123 -64 -269 30 -271 175 0 39 -4 53 -16 56 -30 10
-57 23 -88 43 l-31 21 2 -1337z m2385 -241 l0 -1138 -84 -49 c-46 -26 -88 -49
-92 -49 -8 -1 -13 2204 -6 2249 2 11 24 32 50 47 26 15 65 39 87 52 22 14 41
25 43 25 1 1 2 -511 2 -1137z"/>
</g>
</svg>
